<?xml version="1.0" encoding="iso-8859-1"?>
<!-- Generator: Adobe Illustrator 18.0.0, SVG Export Plug-In . SVG Version: 6.00 Build 0)  -->
<!DOCTYPE svg PUBLIC "-//W3C//DTD SVG 1.1//EN" "http://www.w3.org/Graphics/SVG/1.1/DTD/svg11.dtd">
<svg version="1.1" id="Capa_1" xmlns="http://www.w3.org/2000/svg" xmlns:xlink="http://www.w3.org/1999/xlink" x="0px" y="0px"
	 viewBox="0 0 490 490" style="enable-background:new 0 0 490 490;" xml:space="preserve">
<g>
	<path d="M411.089,121.061H78.911C35.399,121.061,0,156.46,0,199.972v90.056c0,43.512,35.399,78.911,78.911,78.911h332.178
		c43.512,0,78.911-35.399,78.911-78.911v-90.056C490,156.46,454.601,121.061,411.089,121.061z M78.911,151.061h332.178
		c22.672,0,41.785,15.508,47.303,36.471H31.608C37.126,166.569,56.239,151.061,78.911,151.061z M383.387,338.939H106.613v-24.265
		h276.774V338.939z M413.387,338.881v-39.207c0-8.284-6.716-15-15-15H91.613c-8.284,0-15,6.716-15,15v39.207
		C50.706,337.676,30,316.227,30,290.028v-72.496h430v72.496C460,316.227,439.294,337.676,413.387,338.881z"/>
	<path d="M425.68,249.71c-0.1-0.47-0.22-0.95-0.36-1.42c-0.14-0.47-0.31-0.93-0.5-1.38c-0.18-0.45-0.39-0.9-0.62-1.33
		c-0.23-0.43-0.49-0.85-0.76-1.26s-0.56-0.81-0.87-1.18c-0.31-0.39-0.64-0.75-0.99-1.1c-0.35-0.35-0.71-0.68-1.1-0.99
		c-0.37-0.31-0.77-0.6-1.18-0.88c-0.41-0.26-0.83-0.52-1.26-0.75c-0.43-0.23-0.88-0.44-1.33-0.62c-0.45-0.19-0.92-0.36-1.38-0.5
		c-0.47-0.14-0.95-0.26-1.43-0.36s-0.97-0.17-1.45-0.22c-0.98-0.1-1.97-0.1-2.95,0c-0.49,0.05-0.98,0.12-1.46,0.22
		s-0.95,0.22-1.42,0.36c-0.47,0.14-0.93,0.31-1.38,0.5c-0.45,0.18-0.9,0.39-1.33,0.62c-0.43,0.23-0.86,0.49-1.26,0.75
		c-0.41,0.28-0.81,0.57-1.19,0.88s-0.75,0.64-1.09,0.99c-0.35,0.35-0.68,0.71-0.99,1.1c-0.31,0.37-0.61,0.77-0.88,1.18
		s-0.52,0.83-0.75,1.26c-0.23,0.43-0.44,0.88-0.63,1.33c-0.18,0.45-0.35,0.91-0.49,1.38c-0.15,0.47-0.27,0.95-0.36,1.42
		c-0.1,0.49-0.17,0.98-0.22,1.46c-0.05,0.49-0.08,0.99-0.08,1.48c0,0.49,0.03,0.98,0.08,1.47c0.05,0.49,0.12,0.98,0.22,1.46
		c0.09,0.47,0.21,0.95,0.36,1.42c0.14,0.47,0.31,0.93,0.49,1.38c0.19,0.45,0.4,0.9,0.63,1.33c0.23,0.43,0.48,0.86,0.75,1.26
		c0.27,0.41,0.57,0.81,0.88,1.19c0.31,0.38,0.64,0.75,0.99,1.09c0.34,0.35,0.71,0.68,1.09,0.99s0.78,0.61,1.19,0.88
		c0.4,0.27,0.83,0.52,1.26,0.75c0.43,0.23,0.88,0.44,1.33,0.63c0.45,0.18,0.91,0.35,1.38,0.49c0.47,0.15,0.94,0.27,1.42,0.36
		c0.48,0.1,0.97,0.17,1.46,0.22c0.49,0.05,0.98,0.08,1.47,0.08c0.49,0,0.99-0.03,1.48-0.08c0.48-0.05,0.97-0.12,1.45-0.22
		c0.48-0.09,0.96-0.21,1.43-0.36c0.46-0.14,0.93-0.31,1.38-0.49c0.45-0.19,0.9-0.4,1.33-0.63c0.43-0.23,0.85-0.48,1.26-0.75
		c0.41-0.27,0.81-0.57,1.18-0.88c0.39-0.31,0.75-0.64,1.1-0.99c0.35-0.34,0.68-0.71,0.99-1.09c0.31-0.38,0.6-0.78,0.87-1.19
		c0.27-0.4,0.53-0.83,0.76-1.26c0.23-0.43,0.44-0.88,0.62-1.33c0.19-0.45,0.36-0.91,0.5-1.38c0.14-0.47,0.26-0.95,0.36-1.42
		c0.1-0.48,0.17-0.97,0.22-1.46c0.05-0.49,0.07-0.98,0.07-1.47c0-0.49-0.02-0.99-0.07-1.48
		C425.85,250.69,425.78,250.2,425.68,249.71z"/>
	<path d="M371.6,249.71c-0.1-0.47-0.22-0.95-0.36-1.42c-0.14-0.47-0.31-0.93-0.5-1.38c-0.18-0.45-0.39-0.9-0.62-1.33
		c-0.23-0.43-0.49-0.85-0.76-1.26s-0.56-0.81-0.87-1.18c-0.31-0.39-0.65-0.75-0.99-1.1c-0.35-0.35-0.72-0.68-1.1-0.99
		s-0.77-0.6-1.18-0.88c-0.41-0.27-0.83-0.52-1.26-0.75c-0.43-0.23-0.88-0.44-1.33-0.63c-0.45-0.18-0.92-0.35-1.38-0.49
		c-0.47-0.14-0.95-0.26-1.43-0.36s-0.97-0.17-1.45-0.22c-0.98-0.1-1.97-0.1-2.95,0c-0.49,0.05-0.98,0.12-1.46,0.22
		s-0.96,0.22-1.42,0.36c-0.47,0.14-0.93,0.31-1.39,0.49c-0.45,0.19-0.89,0.4-1.32,0.63c-0.43,0.23-0.86,0.48-1.26,0.75
		c-0.41,0.28-0.81,0.57-1.19,0.88s-0.75,0.64-1.09,0.99c-0.35,0.35-0.68,0.71-0.99,1.1c-0.31,0.37-0.61,0.77-0.88,1.18
		s-0.52,0.83-0.75,1.26c-0.23,0.43-0.44,0.88-0.63,1.33c-0.19,0.45-0.35,0.91-0.49,1.38c-0.15,0.47-0.27,0.95-0.36,1.42
		c-0.1,0.49-0.17,0.98-0.22,1.46c-0.05,0.49-0.08,0.99-0.08,1.48c0,0.49,0.03,0.98,0.08,1.47c0.05,0.49,0.12,0.98,0.22,1.46
		c0.09,0.47,0.21,0.95,0.36,1.42c0.14,0.47,0.3,0.93,0.49,1.38c0.19,0.45,0.4,0.9,0.63,1.33c0.23,0.43,0.48,0.86,0.75,1.26
		c0.27,0.41,0.57,0.81,0.88,1.19c0.31,0.38,0.64,0.75,0.99,1.09c0.34,0.35,0.71,0.68,1.09,0.99s0.78,0.61,1.19,0.88
		c0.4,0.27,0.83,0.52,1.26,0.75c0.43,0.23,0.87,0.44,1.32,0.63c0.46,0.18,0.92,0.35,1.39,0.49c0.46,0.14,0.94,0.27,1.42,0.36
		c0.48,0.1,0.97,0.17,1.46,0.22c0.49,0.05,0.98,0.08,1.47,0.08c0.49,0,0.99-0.03,1.48-0.08c0.48-0.05,0.97-0.12,1.45-0.22
		c0.48-0.09,0.96-0.22,1.43-0.36c0.46-0.14,0.93-0.31,1.38-0.49c0.45-0.19,0.9-0.4,1.33-0.63c0.43-0.23,0.85-0.48,1.26-0.75
		c0.41-0.27,0.8-0.57,1.18-0.88s0.75-0.64,1.1-0.99c0.34-0.34,0.68-0.71,0.99-1.09c0.31-0.38,0.6-0.78,0.87-1.19
		c0.27-0.4,0.53-0.83,0.76-1.26c0.23-0.43,0.44-0.88,0.62-1.33c0.19-0.45,0.36-0.91,0.5-1.38c0.14-0.47,0.26-0.95,0.36-1.42
		c0.1-0.48,0.17-0.97,0.22-1.46c0.05-0.49,0.07-0.98,0.07-1.47c0-0.49-0.02-0.99-0.07-1.48C371.77,250.69,371.7,250.2,371.6,249.71z
		"/>
</g>
<g>
</g>
<g>
</g>
<g>
</g>
<g>
</g>
<g>
</g>
<g>
</g>
<g>
</g>
<g>
</g>
<g>
</g>
<g>
</g>
<g>
</g>
<g>
</g>
<g>
</g>
<g>
</g>
<g>
</g>
</svg>
